/* XPM */
static char*ziptools[]={
"32 32 10 1",
"e c #838183",
"c c #c3c3c3",
"h c #ffc2c5",
"a c #000000",
". c None",
"b c #5a595a",
"# c #ffff00",
"f c #008183",
"d c #ffffff",
"g c #ff0000",
"................................",
".#..............................",
"..#...........aaaaa.............",
"..##.........abbbbbaa...........",
"...##.......abbbbbbbbaa.........",
"....#......abbbbbbbbaccaa.......",
"....##....##bbbbbbbacccccaa.....",
".....##..a###bbbbbbbaacccccaa...",
"......##ab####bbbbbbbbaaccabbaa.",
"......###b####bbbbbbbbbbaabbbbba",
"......a####d###eebbbbbbbbbbbbbba",
".....abb###dd###aabbbbbbbbbbbbaa",
"....abbba##ddd##ffaabbbbbbbbbaa.",
"...abbbad##aaggfffffaabbbbbbaa..",
"..abbbaddd#ddaafffffffabbbbaa...",
".abbbadddddddddaaffffabbbbaa....",
"abbbaddddddddddddaafabbbbaa.....",
"abbadddddddddddddddabbbbaa......",
"abbbddddddddddddddabbbbaa.......",
".aabbbddddddghdddabbbbaa........",
"...aabbbddbbgghdabbbbaa.........",
".....aabbbddbbdabbbbaa#.........",
".......aabbbddabbbbaa###........",
".........aabbbbbbbaa.###........",
"...........aabbbbaa...###.......",
".............aabaa.....###......",
"...............aa.......##......",
".........................##.....",
"..........................#.....",
"................................",
"................................",
"................................"};
